<svg width="384" height="384" viewBox="0 0 384 384" fill="none" xmlns="http://www.w3.org/2000/svg">
<rect width="384" height="384" rx="48" fill="black"/>
<path d="M191.591 128.955C191.602 125.369 190.895 121.822 189.513 118.514C188.134 115.209 186.106 112.213 183.548 109.701C180.993 107.189 177.958 105.217 174.63 103.896C171.298 102.572 167.739 101.932 164.157 102.006C160.575 102.08 157.044 102.869 153.77 104.33C150.497 105.787 147.552 107.889 145.102 110.502C142.649 113.119 140.751 116.197 139.509 119.557C138.266 122.92 137.708 126.494 137.868 130.072C132.602 131.428 127.712 133.963 123.571 137.486C119.43 141.01 116.145 145.428 113.966 150.408C111.786 155.389 110.766 160.799 110.985 166.232C111.208 171.666 112.661 176.975 115.239 181.764C110.708 185.443 107.145 190.178 104.86 195.549C102.575 200.92 101.638 206.771 102.126 212.588C102.618 218.408 104.524 224.014 107.677 228.928C110.829 233.842 115.134 237.912 120.22 240.779C119.591 245.639 119.966 250.572 121.321 255.279C122.673 259.986 124.977 264.365 128.091 268.146C131.204 271.928 135.059 275.033 139.419 277.268C143.778 279.498 148.548 280.814 153.438 281.131C158.325 281.447 163.223 280.76 167.837 279.111C172.446 277.459 176.673 274.881 180.247 271.533C183.821 268.185 186.673 264.139 188.626 259.646C190.575 255.154 191.587 250.31 191.591 245.412V128.955Z" stroke="white" stroke-width="17.9167" stroke-linecap="round" stroke-linejoin="round"/>
<path d="M191.591 128.955C191.579 125.369 192.286 121.822 193.669 118.514C195.048 115.209 197.075 112.213 199.634 109.701C202.188 107.189 205.223 105.217 208.552 103.896C211.884 102.572 215.442 101.932 219.024 102.006C222.606 102.08 226.137 102.869 229.411 104.33C232.684 105.787 235.63 107.889 238.079 110.502C240.528 113.119 242.43 116.197 243.673 119.557C244.915 122.92 245.473 126.494 245.313 130.072C250.579 131.428 255.47 133.963 259.61 137.486C263.751 141.01 267.036 145.428 269.216 150.408C271.395 155.389 272.415 160.799 272.192 166.232C271.973 171.666 270.52 176.975 267.942 181.764C272.473 185.443 276.036 190.178 278.321 195.549C280.606 200.92 281.544 206.771 281.055 212.588C280.563 218.408 278.657 224.014 275.505 228.928C272.352 233.842 268.044 237.912 262.962 240.779C263.591 245.639 263.216 250.572 261.86 255.279C260.509 259.986 258.204 264.365 255.091 268.146C251.977 271.928 248.122 275.033 243.762 277.268C239.403 279.498 234.634 280.814 229.743 281.131C224.856 281.447 219.958 280.76 215.345 279.111C210.735 277.459 206.509 274.881 202.934 271.533C199.36 268.185 196.509 264.139 194.555 259.646C192.606 255.154 191.595 250.31 191.591 245.412V128.955Z" stroke="white" stroke-width="17.9167" stroke-linecap="round" stroke-linejoin="round"/>
<path d="M218.466 200.619C210.946 197.975 204.376 193.158 199.595 186.779C194.809 180.4 192.024 172.748 191.591 164.787C191.157 172.748 188.372 180.4 183.587 186.779C178.806 193.158 172.235 197.975 164.716 200.619" stroke="white" stroke-width="17.9167" stroke-linecap="round" stroke-linejoin="round"/>
<path d="M241.747 142.393C243.915 138.635 245.141 134.408 245.321 130.072" stroke="white" stroke-width="17.9167" stroke-linecap="round" stroke-linejoin="round"/>
<path d="M137.868 130.072C138.044 134.408 139.266 138.635 141.434 142.393" stroke="white" stroke-width="17.9167" stroke-linecap="round" stroke-linejoin="round"/>
<path d="M115.239 181.771C116.876 180.435 118.63 179.252 120.481 178.225" stroke="white" stroke-width="17.9167" stroke-linecap="round" stroke-linejoin="round"/>
<path d="M262.7 178.225C264.552 179.252 266.306 180.435 267.942 181.771" stroke="white" stroke-width="17.9167" stroke-linecap="round" stroke-linejoin="round"/>
<path d="M137.841 245.412C131.669 245.416 125.599 243.822 120.22 240.791" stroke="white" stroke-width="17.9167" stroke-linecap="round" stroke-linejoin="round"/>
<path d="M262.962 240.791C257.583 243.822 251.516 245.416 245.341 245.412" stroke="white" stroke-width="17.9167" stroke-linecap="round" stroke-linejoin="round"/>
</svg>
